<?xml version="1.0" encoding="UTF-8" standalone="no"?>
<!-- Created with Inkscape (http://www.inkscape.org/) -->

<svg
   xmlns:dc="http://purl.org/dc/elements/1.1/"
   xmlns:cc="http://creativecommons.org/ns#"
   xmlns:rdf="http://www.w3.org/1999/02/22-rdf-syntax-ns#"
   xmlns:svg="http://www.w3.org/2000/svg"
   xmlns="http://www.w3.org/2000/svg"
   xmlns:sodipodi="http://sodipodi.sourceforge.net/DTD/sodipodi-0.dtd"
   xmlns:inkscape="http://www.inkscape.org/namespaces/inkscape"
   width="91"
   height="45"
   id="svg4010"
   version="1.1"
   inkscape:version="0.48.3.1 r9886"
   sodipodi:docname="New document 6">
  <defs
     id="defs4012" />
  <sodipodi:namedview
     id="base"
     pagecolor="#ffffff"
     bordercolor="#666666"
     borderopacity="1.0"
     inkscape:pageopacity="0.0"
     inkscape:pageshadow="2"
     inkscape:zoom="1"
     inkscape:cx="82.5"
     inkscape:cy="38.5"
     inkscape:document-units="px"
     inkscape:current-layer="layer1"
     showgrid="false"
     fit-margin-top="0"
     fit-margin-left="0"
     fit-margin-right="0"
     fit-margin-bottom="0"
     inkscape:window-width="726"
     inkscape:window-height="335"
     inkscape:window-x="0"
     inkscape:window-y="14"
     inkscape:window-maximized="0" />
  <metadata
     id="metadata4015">
    <rdf:RDF>
      <cc:Work
         rdf:about="">
        <dc:format>image/svg+xml</dc:format>
        <dc:type
           rdf:resource="http://purl.org/dc/dcmitype/StillImage" />
        <dc:title></dc:title>
      </cc:Work>
    </rdf:RDF>
  </metadata>
  <g
     inkscape:label="Layer 1"
     inkscape:groupmode="layer"
     id="layer1"
     transform="translate(-322.5,-525.86218)">
    <rect
       style="color:#000000;fill:#399382;fill-opacity:1;fill-rule:evenodd;stroke:none;stroke-width:1.39999998;marker:none;visibility:visible;display:inline;overflow:visible;enable-background:accumulate"
       id="rect3824"
       width="80"
       height="45"
       x="322.5"
       y="525.86218"
       rx="2.4570789"
       ry="2.6326144" />
    <path
       style="color:#000000;fill:#399382;fill-opacity:1;fill-rule:evenodd;stroke:none;stroke-width:23;marker:none;visibility:visible;display:inline;overflow:visible;enable-background:accumulate"
       d="m 406.5,555.3622 10e-5,-14 6.9999,7.0002 z"
       id="path3828"
       inkscape:connector-curvature="0"
       sodipodi:nodetypes="cccc" />
    <g
       id="g3864"
       transform="matrix(0.62624044,0,0,0.62624044,1064.7543,-639.61192)">
      <g
         style="font-size:24.36316872px;font-style:normal;font-variant:normal;font-weight:bold;font-stretch:normal;text-indent:0;text-align:start;text-decoration:none;line-height:125%;letter-spacing:normal;word-spacing:normal;text-transform:none;direction:ltr;block-progression:tb;writing-mode:lr-tb;text-anchor:start;color:#000000;fill:#ffffff;fill-opacity:1;fill-rule:evenodd;stroke:none;stroke-width:1.39999998;marker:none;visibility:visible;display:inline;overflow:visible;enable-background:accumulate;font-family:FreeSans;-inkscape-font-specification:FreeSans Bold"
         id="text3856">
        <path
           d="m -1165.7124,1880.6509 -3.4109,0 c -0.1299,-1.8516 -1.3724,-2.7774 -3.7275,-2.7774 -0.9421,0 -1.6892,0.2031 -2.2414,0.6091 -0.5523,0.3898 -0.8284,0.9177 -0.8284,1.5836 0,0.6497 0.2355,1.137 0.7066,1.4618 0.471,0.3086 1.3562,0.5928 2.6555,0.8527 l 2.7774,0.536 c 1.6405,0.3249 2.8343,0.8771 3.5814,1.6567 0.7471,0.7634 1.1207,1.8435 1.1207,3.2403 0,1.8029 -0.6415,3.2159 -1.9247,4.2392 -1.2831,1.007 -3.0697,1.5105 -5.3599,1.5105 -2.2739,0 -4.0442,-0.5035 -5.3111,-1.5105 -1.2507,-1.007 -1.9328,-2.4607 -2.0465,-4.361 l 3.557,0 c 0.065,0.9583 0.4385,1.6892 1.1207,2.1927 0.6822,0.5035 1.6404,0.7552 2.8748,0.7552 1.1045,0 1.9735,-0.2111 2.6069,-0.6334 0.6497,-0.4223 0.9745,-1.007 0.9745,-1.7542 0,-0.7146 -0.2517,-1.2668 -0.7552,-1.6567 -0.5035,-0.3898 -1.3644,-0.6984 -2.5825,-0.9258 l -2.4851,-0.4872 c -1.8028,-0.3411 -3.086,-0.8771 -3.8493,-1.608 -0.7634,-0.7309 -1.1451,-1.7866 -1.1451,-3.1672 0,-1.7379 0.5847,-3.0779 1.7541,-4.0199 1.1857,-0.9583 2.8424,-1.4374 4.9701,-1.4375 0.6172,10e-5 1.2101,0.041 1.7785,0.1219 0.5847,0.081 1.2019,0.2517 1.8516,0.5116 0.6497,0.2436 1.2101,0.5685 1.6811,0.9745 0.471,0.3898 0.8608,0.9421 1.1694,1.6567 0.3249,0.6984 0.4873,1.5105 0.4873,2.4363"
           style="marker:none"
           id="path3960"
           inkscape:connector-curvature="0" />
        <path
           d="m -1159.5481,1885.353 0,4.6047 9.6234,0 0,3.0454 -13.2779,0 0,-17.7608 12.8394,0 0,3.0454 -9.1849,0 0,4.0199 8.5027,0 0,3.0454 -8.5027,0"
           style="marker:none"
           id="path3962"
           inkscape:connector-curvature="0" />
        <path
           d="m -1137.426,1893.0031 -7.1384,-12.2791 0,12.2791 -3.6545,0 0,-17.7608 3.752,0 7.0409,12.0841 0,-12.0841 3.6545,0 0,17.7608 -3.6545,0"
           style="marker:none"
           id="path3964"
           inkscape:connector-curvature="0" />
        <path
           d="m -1130.3934,1893.0031 0,-17.7608 6.9435,0 c 1.3643,0 2.485,0.1624 3.3621,0.4873 0.8933,0.3248 1.6405,0.8446 2.2414,1.5592 1.4456,1.7217 2.1683,3.9956 2.1684,6.8217 -10e-5,2.8586 -0.7228,5.1325 -2.1684,6.8217 -1.1532,1.3806 -3.021,2.0709 -5.6035,2.0709 l -6.9435,0 m 3.6545,-3.0454 3.289,0 c 2.7449,0 4.1174,-1.941 4.1174,-5.8228 0,-3.8981 -1.3725,-5.8472 -4.1174,-5.8472 l -3.289,0 0,11.67"
           style="marker:none"
           id="path3966"
           inkscape:connector-curvature="0" />
      </g>
      <g
         style="font-size:24.36316872px;font-style:normal;font-variant:normal;font-weight:bold;font-stretch:normal;text-indent:0;text-align:start;text-decoration:none;line-height:125%;letter-spacing:normal;word-spacing:normal;text-transform:none;direction:ltr;block-progression:tb;writing-mode:lr-tb;text-anchor:start;color:#000000;fill:#ffffff;fill-opacity:1;fill-rule:evenodd;stroke:none;stroke-width:1.39999998;marker:none;visibility:visible;display:inline;overflow:visible;enable-background:accumulate;font-family:FreeSans;-inkscape-font-specification:FreeSans Bold"
         id="text3860">
        <path
           d="m -1167.6615,1906.734 c -0.4548,-2.1277 -1.7216,-3.1916 -3.8006,-3.1916 -1.4456,0 -2.5744,0.5523 -3.3865,1.6567 -0.8121,1.1045 -1.2182,2.6394 -1.2182,4.6047 0,1.9328 0.3898,3.4433 1.1695,4.5315 0.7958,1.0882 1.9003,1.6323 3.3134,1.6323 1.1369,0 2.0465,-0.3086 2.7286,-0.9258 0.6822,-0.6172 1.0801,-1.4942 1.1938,-2.6312 l 3.5571,0 c -0.1138,2.0303 -0.8528,3.6464 -2.2171,4.8483 -1.3643,1.1857 -3.151,1.7785 -5.3599,1.7785 -2.4688,0 -4.426,-0.8283 -5.8715,-2.485 -1.4456,-1.673 -2.1683,-3.9387 -2.1683,-6.7974 0,-2.8748 0.7309,-5.1487 2.1927,-6.8217 1.4617,-1.6729 3.4433,-2.5093 5.9446,-2.5094 2.0952,10e-5 3.8087,0.5604 5.1406,1.6811 1.3481,1.1207 2.1033,2.6637 2.2658,4.629 l -3.484,0"
           style="marker:none"
           id="path3969"
           inkscape:connector-curvature="0" />
        <path
           d="m -1151.8094,1910.4128 -7.0409,0 0,8.0643 -3.6545,0 0,-17.7608 3.6545,0 0,6.6511 7.0165,0 0,-6.6511 3.6789,0 0,17.7608 -3.6545,0 0,-8.0643"
           style="marker:none"
           id="path3972"
           inkscape:connector-curvature="0" />
        <path
           d="m -1134.8366,1914.8957 -6.6511,0 -1.1938,3.5814 -3.7276,0 6.3101,-17.7608 4.0442,0 6.1396,17.7608 -3.752,0 -1.1694,-3.5814 m -0.9989,-3.0454 -2.3145,-6.9435 -2.3145,6.9435 4.629,0"
           style="marker:none"
           id="path3974"
           inkscape:connector-curvature="0" />
        <path
           d="m -1117.9613,1918.4771 -7.1384,-12.2791 0,12.2791 -3.6545,0 0,-17.7608 3.752,0 7.0409,12.0841 0,-12.0841 3.6545,0 0,17.7608 -3.6545,0"
           style="marker:none"
           id="path3976"
           inkscape:connector-curvature="0" />
        <path
           d="m -1099.4049,1906.3442 c -0.6497,-1.9003 -2.0627,-2.8505 -4.2392,-2.8505 -1.543,0 -2.7611,0.5441 -3.6544,1.6323 -0.8771,1.0883 -1.3157,2.5907 -1.3157,4.5072 0,1.8191 0.4711,3.3134 1.4131,4.4828 0.9583,1.1695 2.1764,1.7542 3.6545,1.7542 0.2274,0 0.4872,-0.024 0.7796,-0.073 0.3086,-0.065 0.674,-0.1787 1.0963,-0.3411 0.4223,-0.1786 0.8121,-0.406 1.1695,-0.6822 0.3573,-0.2761 0.674,-0.6578 0.9501,-1.145 0.2761,-0.5035 0.4467,-1.072 0.5117,-1.7054 l -4.0443,0 0,-3.0454 7.114,0 0,9.5991 -2.1927,0 -0.4385,-2.3389 c -0.6822,0.9908 -1.4456,1.7135 -2.2901,2.1683 -0.8446,0.4548 -1.8679,0.6822 -3.0698,0.6822 -2.4038,0 -4.3935,-0.8771 -5.969,-2.6312 -1.5592,-1.7542 -2.3388,-3.9794 -2.3388,-6.6756 0,-2.7611 0.7958,-5.0025 2.3876,-6.7242 1.5917,-1.7216 3.6625,-2.5825 6.2126,-2.5825 2.1439,0 3.9062,0.536 5.2868,1.608 1.3805,1.072 2.1845,2.5256 2.4119,4.361 l -3.4352,0"
           style="marker:none"
           id="path3978"
           inkscape:connector-curvature="0" />
        <path
           d="m -1089.8705,1910.827 0,4.6047 9.6235,0 0,3.0454 -13.2779,0 0,-17.7608 12.8393,0 0,3.0454 -9.1849,0 0,4.0199 8.5028,0 0,3.0454 -8.5028,0"
           style="marker:none"
           id="path3980"
           inkscape:connector-curvature="0" />
        <path
           d="m -1065.6531,1906.1249 -3.4108,0 c -0.13,-1.8516 -1.3725,-2.7774 -3.7276,-2.7774 -0.942,0 -1.6892,0.2031 -2.2414,0.6091 -0.5522,0.3898 -0.8283,0.9177 -0.8283,1.5836 0,0.6497 0.2355,1.137 0.7065,1.4618 0.471,0.3086 1.3562,0.5928 2.6556,0.8527 l 2.7774,0.536 c 1.6404,0.3249 2.8342,0.8771 3.5814,1.6567 0.7471,0.7634 1.1206,1.8435 1.1207,3.2403 -10e-5,1.8029 -0.6416,3.2159 -1.9247,4.2392 -1.2832,1.007 -3.0698,1.5105 -5.3599,1.5105 -2.2739,0 -4.0443,-0.5035 -5.3112,-1.5105 -1.2506,-1.007 -1.9328,-2.4607 -2.0465,-4.361 l 3.557,0 c 0.065,0.9583 0.4386,1.6892 1.1207,2.1927 0.6822,0.5035 1.6405,0.7552 2.8749,0.7552 1.1044,0 1.9734,-0.2111 2.6068,-0.6334 0.6497,-0.4223 0.9746,-1.007 0.9746,-1.7542 0,-0.7146 -0.2518,-1.2668 -0.7553,-1.6567 -0.5035,-0.3898 -1.3643,-0.6984 -2.5825,-0.9258 l -2.485,-0.4872 c -1.8029,-0.3411 -3.086,-0.8771 -3.8494,-1.608 -0.7634,-0.7309 -1.1451,-1.7866 -1.1451,-3.1672 0,-1.7379 0.5847,-3.0779 1.7542,-4.0199 1.1856,-0.9583 2.8423,-1.4374 4.9701,-1.4375 0.6171,10e-5 1.21,0.041 1.7785,0.1219 0.5847,0.081 1.2019,0.2517 1.8516,0.5116 0.6496,0.2436 1.21,0.5685 1.681,0.9745 0.471,0.3898 0.8608,0.9421 1.1695,1.6567 0.3248,0.6984 0.4872,1.5105 0.4872,2.4363"
           style="marker:none"
           id="path3982"
           inkscape:connector-curvature="0" />
      </g>
    </g>
  </g>
</svg>
